# xmcd CD database file
# Copyright (C) 1993-1998 Ti Kan
#
# Track frame offsets:
#	150
#	20112
#	33212
#
# Disc length: 706 seconds
#
# Revision: 0
# Processed by: cddbd v1.4b41PL1 Copyright (c) Steve Scherf et al.
# Submitted via: CDmax 1.5
#
DISCID=1c02c003
DTITLE=Cameron Daddo - Fifteen Minutes Of Fame
DYEAR=1900
DGENRE=
TTITLE0=Fifteen Minutes Of Fame  (Radio Mix)
TTITLE1=Hit The Ground Runnin'
TTITLE2=Fifteen Minutes Of Fame  (Album Mix)
EXTD=
EXTT0=
EXTT1=
EXTT2=
PLAYORDER=
